<?xml version="1.0" encoding="utf-8"?>
 <!DOCTYPE svg PUBLIC "-//W3C//DTD SVG 20010904//EN" "http://www.w3.org/TR/2001/REC-SVG-20010904/DTD/svg10.dtd">
<svg xmlns="http://www.w3.org/2000/svg" xmlns:xlink="http://www.w3.org/1999/xlink" viewBox="-5 -5 35 35" class="w-full bg-white" url="http://z.sobs.moe/rr" correct_level="medium" positioning_point_type="square" positioning_point_color="#000000" content_line_type="interlock" content_point_scale="0.6" content_point_opacity="1" content_point_color="#000000"><circle opacity="1" r="0.3" fill="#000000" cx="8.5" cy="0.5"></circle><circle opacity="1" r="0.3" fill="#000000" cx="10.5" cy="0.5"></circle><circle opacity="1" r="0.3" fill="#000000" cx="13.5" cy="0.5"></circle><line opacity="1" x1="16.5" y1="0.5" x2="16.5" y2="1.5" stroke-width="0.6" stroke="#000000" stroke-linecap="round"></line><line opacity="1" x1="9.5" y1="1.5" x2="9.5" y2="3.5" stroke-width="0.6" stroke="#000000" stroke-linecap="round"></line><circle opacity="1" r="0.3" fill="#000000" cx="12.5" cy="1.5"></circle><circle opacity="1" r="0.3" fill="#000000" cx="11.5" cy="2.5"></circle><circle opacity="1" r="0.3" fill="#000000" cx="13.5" cy="2.5"></circle><line opacity="1" x1="15.5" y1="2.5" x2="15.5" y2="4.5" stroke-width="0.6" stroke="#000000" stroke-linecap="round"></line><rect fill="#000000" x="2" y="2" width="3" height="3"></rect><rect fill="none" stroke-width="1" stroke="#000000" x="0.5" y="0.5" width="6" height="6"></rect><circle opacity="1" r="0.3" fill="#000000" cx="12.5" cy="3.5"></circle><line opacity="1" x1="16.5" y1="3.5" x2="16.5" y2="6.5" stroke-width="0.6" stroke="#000000" stroke-linecap="round"></line><rect fill="#000000" x="20" y="2" width="3" height="3"></rect><rect fill="none" stroke-width="1" stroke="#000000" x="18.5" y="0.5" width="6" height="6"></rect><circle opacity="1" r="0.3" fill="#000000" cx="8.5" cy="4.5"></circle><line opacity="1" x1="10.5" y1="4.5" x2="11.5" y2="4.5" stroke-width="0.6" stroke="#000000" stroke-linecap="round"></line><line opacity="1" x1="8.5" y1="6.5" x2="8.5" y2="9.5" stroke-width="0.6" stroke="#000000" stroke-linecap="round"></line><line opacity="1" x1="10.5" y1="6.5" x2="10.5" y2="8.5" stroke-width="0.6" stroke="#000000" stroke-linecap="round"></line><circle opacity="1" r="0.3" fill="#000000" cx="12.5" cy="6.5"></circle><line opacity="1" x1="14.5" y1="6.5" x2="14.5" y2="9.5" stroke-width="0.6" stroke="#000000" stroke-linecap="round"></line><circle opacity="1" r="0.3" fill="#000000" cx="11.5" cy="7.5"></circle><line opacity="1" x1="15.5" y1="7.5" x2="16.5" y2="7.5" stroke-width="0.6" stroke="#000000" stroke-linecap="round"></line><line opacity="1" x1="0.5" y1="8.5" x2="0.5" y2="9.5" stroke-width="0.6" stroke="#000000" stroke-linecap="round"></line><line opacity="1" x1="3.5" y1="8.5" x2="3.5" y2="11.5" stroke-width="0.6" stroke="#000000" stroke-linecap="round"></line><line opacity="1" x1="4.5" y1="8.5" x2="4.5" y2="11.5" stroke-width="0.6" stroke="#000000" stroke-linecap="round"></line><line opacity="1" x1="5.5" y1="8.5" x2="7.5" y2="8.5" stroke-width="0.6" stroke="#000000" stroke-linecap="round"></line><line opacity="1" x1="12.5" y1="8.5" x2="12.5" y2="11.5" stroke-width="0.6" stroke="#000000" stroke-linecap="round"></line><line opacity="1" x1="13.5" y1="8.5" x2="13.5" y2="10.5" stroke-width="0.6" stroke="#000000" stroke-linecap="round"></line><line opacity="1" x1="17.5" y1="8.5" x2="17.5" y2="10.5" stroke-width="0.6" stroke="#000000" stroke-linecap="round"></line><line opacity="1" x1="18.5" y1="8.5" x2="18.5" y2="10.5" stroke-width="0.6" stroke="#000000" stroke-linecap="round"></line><line opacity="1" x1="20.5" y1="8.5" x2="20.5" y2="9.5" stroke-width="0.6" stroke="#000000" stroke-linecap="round"></line><line opacity="1" x1="24.5" y1="8.5" x2="24.5" y2="10.5" stroke-width="0.6" stroke="#000000" stroke-linecap="round"></line><circle opacity="1" r="0.3" fill="#000000" cx="2.5" cy="9.5"></circle><line opacity="1" x1="7.5" y1="9.5" x2="7.5" y2="12.5" stroke-width="0.6" stroke="#000000" stroke-linecap="round"></line><circle opacity="1" r="0.3" fill="#000000" cx="9.5" cy="9.5"></circle><circle opacity="1" r="0.3" fill="#000000" cx="11.5" cy="9.5"></circle><circle opacity="1" r="0.3" fill="#000000" cx="15.5" cy="9.5"></circle><line opacity="1" x1="19.5" y1="9.5" x2="19.5" y2="10.5" stroke-width="0.6" stroke="#000000" stroke-linecap="round"></line><circle opacity="1" r="0.3" fill="#000000" cx="1.5" cy="10.5"></circle><line opacity="1" x1="5.5" y1="10.5" x2="5.5" y2="12.5" stroke-width="0.6" stroke="#000000" stroke-linecap="round"></line><circle opacity="1" r="0.3" fill="#000000" cx="6.5" cy="10.5"></circle><circle opacity="1" r="0.3" fill="#000000" cx="8.5" cy="10.5"></circle><circle opacity="1" r="0.3" fill="#000000" cx="10.5" cy="10.5"></circle><line opacity="1" x1="14.5" y1="10.5" x2="14.5" y2="13.5" stroke-width="0.6" stroke="#000000" stroke-linecap="round"></line><circle opacity="1" r="0.3" fill="#000000" cx="16.5" cy="10.5"></circle><circle opacity="1" r="0.3" fill="#000000" cx="21.5" cy="10.5"></circle><line opacity="1" x1="23.5" y1="10.5" x2="23.5" y2="11.5" stroke-width="0.6" stroke="#000000" stroke-linecap="round"></line><line opacity="1" x1="0.5" y1="11.5" x2="0.5" y2="12.5" stroke-width="0.6" stroke="#000000" stroke-linecap="round"></line><circle opacity="1" r="0.3" fill="#000000" cx="11.5" cy="11.5"></circle><circle opacity="1" r="0.3" fill="#000000" cx="15.5" cy="11.5"></circle><circle opacity="1" r="0.3" fill="#000000" cx="20.5" cy="11.5"></circle><line opacity="1" x1="22.5" y1="11.5" x2="22.5" y2="14.5" stroke-width="0.6" stroke="#000000" stroke-linecap="round"></line><line opacity="1" x1="1.5" y1="12.5" x2="2.5" y2="12.5" stroke-width="0.6" stroke="#000000" stroke-linecap="round"></line><line opacity="1" x1="4.5" y1="12.5" x2="4.5" y2="13.5" stroke-width="0.6" stroke="#000000" stroke-linecap="round"></line><circle opacity="1" r="0.3" fill="#000000" cx="6.5" cy="12.5"></circle><line opacity="1" x1="9.5" y1="12.5" x2="9.5" y2="13.5" stroke-width="0.6" stroke="#000000" stroke-linecap="round"></line><line opacity="1" x1="10.5" y1="12.5" x2="10.5" y2="13.5" stroke-width="0.6" stroke="#000000" stroke-linecap="round"></line><circle opacity="1" r="0.3" fill="#000000" cx="13.5" cy="12.5"></circle><line opacity="1" x1="16.5" y1="12.5" x2="16.5" y2="13.5" stroke-width="0.6" stroke="#000000" stroke-linecap="round"></line><circle opacity="1" r="0.3" fill="#000000" cx="19.5" cy="12.5"></circle><circle opacity="1" r="0.3" fill="#000000" cx="21.5" cy="12.5"></circle><line opacity="1" x1="24.5" y1="12.5" x2="24.5" y2="13.5" stroke-width="0.6" stroke="#000000" stroke-linecap="round"></line><line opacity="1" x1="3.5" y1="13.5" x2="3.5" y2="16.5" stroke-width="0.6" stroke="#000000" stroke-linecap="round"></line><line opacity="1" x1="12.5" y1="13.5" x2="12.5" y2="15.5" stroke-width="0.6" stroke="#000000" stroke-linecap="round"></line><circle opacity="1" r="0.3" fill="#000000" cx="15.5" cy="13.5"></circle><line opacity="1" x1="17.5" y1="13.5" x2="17.5" y2="14.5" stroke-width="0.6" stroke="#000000" stroke-linecap="round"></line><line opacity="1" x1="20.5" y1="13.5" x2="20.5" y2="14.5" stroke-width="0.6" stroke="#000000" stroke-linecap="round"></line><circle opacity="1" r="0.3" fill="#000000" cx="23.5" cy="13.5"></circle><line opacity="1" x1="0.5" y1="14.5" x2="0.5" y2="15.5" stroke-width="0.6" stroke="#000000" stroke-linecap="round"></line><line opacity="1" x1="2.5" y1="14.5" x2="2.5" y2="15.5" stroke-width="0.6" stroke="#000000" stroke-linecap="round"></line><line opacity="1" x1="5.5" y1="14.5" x2="6.5" y2="14.5" stroke-width="0.6" stroke="#000000" stroke-linecap="round"></line><line opacity="1" x1="13.5" y1="14.5" x2="13.5" y2="16.5" stroke-width="0.6" stroke="#000000" stroke-linecap="round"></line><line opacity="1" x1="14.5" y1="14.5" x2="14.5" y2="16.5" stroke-width="0.6" stroke="#000000" stroke-linecap="round"></line><line opacity="1" x1="19.5" y1="14.5" x2="19.5" y2="16.5" stroke-width="0.6" stroke="#000000" stroke-linecap="round"></line><line opacity="1" x1="4.5" y1="15.5" x2="4.5" y2="16.5" stroke-width="0.6" stroke="#000000" stroke-linecap="round"></line><line opacity="1" x1="8.5" y1="15.5" x2="11.5" y2="15.5" stroke-width="0.6" stroke="#000000" stroke-linecap="round"></line><line opacity="1" x1="16.5" y1="15.5" x2="16.5" y2="18.5" stroke-width="0.6" stroke="#000000" stroke-linecap="round"></line><line opacity="1" x1="21.5" y1="15.5" x2="21.5" y2="18.5" stroke-width="0.6" stroke="#000000" stroke-linecap="round"></line><line opacity="1" x1="22.5" y1="15.5" x2="22.5" y2="18.5" stroke-width="0.6" stroke="#000000" stroke-linecap="round"></line><circle opacity="1" r="0.3" fill="#000000" cx="24.5" cy="15.5"></circle><circle opacity="1" r="0.3" fill="#000000" cx="1.5" cy="16.5"></circle><line opacity="1" x1="5.5" y1="16.5" x2="6.5" y2="16.5" stroke-width="0.6" stroke="#000000" stroke-linecap="round"></line><line opacity="1" x1="9.5" y1="16.5" x2="9.5" y2="17.5" stroke-width="0.6" stroke="#000000" stroke-linecap="round"></line><line opacity="1" x1="17.5" y1="16.5" x2="18.5" y2="16.5" stroke-width="0.6" stroke="#000000" stroke-linecap="round"></line><line opacity="1" x1="20.5" y1="16.5" x2="20.5" y2="19.5" stroke-width="0.6" stroke="#000000" stroke-linecap="round"></line><line opacity="1" x1="8.5" y1="17.5" x2="8.5" y2="20.5" stroke-width="0.6" stroke="#000000" stroke-linecap="round"></line><circle opacity="1" r="0.3" fill="#000000" cx="10.5" cy="17.5"></circle><line opacity="1" x1="12.5" y1="17.5" x2="12.5" y2="19.5" stroke-width="0.6" stroke="#000000" stroke-linecap="round"></line><circle opacity="1" r="0.3" fill="#000000" cx="23.5" cy="17.5"></circle><line opacity="1" x1="11.5" y1="18.5" x2="11.5" y2="20.5" stroke-width="0.6" stroke="#000000" stroke-linecap="round"></line><line opacity="1" x1="14.5" y1="18.5" x2="15.5" y2="18.5" stroke-width="0.6" stroke="#000000" stroke-linecap="round"></line><circle opacity="1" r="0.3" fill="#000000" cx="18.5" cy="18.5"></circle><line opacity="1" x1="13.5" y1="19.5" x2="13.5" y2="20.5" stroke-width="0.6" stroke="#000000" stroke-linecap="round"></line><line opacity="1" x1="16.5" y1="19.5" x2="16.5" y2="22.5" stroke-width="0.6" stroke="#000000" stroke-linecap="round"></line><line opacity="1" x1="22.5" y1="19.5" x2="23.5" y2="19.5" stroke-width="0.6" stroke="#000000" stroke-linecap="round"></line><line opacity="1" x1="9.5" y1="20.5" x2="9.5" y2="21.5" stroke-width="0.6" stroke="#000000" stroke-linecap="round"></line><line opacity="1" x1="10.5" y1="20.5" x2="10.5" y2="22.5" stroke-width="0.6" stroke="#000000" stroke-linecap="round"></line><line opacity="1" x1="14.5" y1="20.5" x2="14.5" y2="22.5" stroke-width="0.6" stroke="#000000" stroke-linecap="round"></line><line opacity="1" x1="15.5" y1="20.5" x2="15.5" y2="23.5" stroke-width="0.6" stroke="#000000" stroke-linecap="round"></line><line opacity="1" x1="17.5" y1="20.5" x2="20.5" y2="20.5" stroke-width="0.6" stroke="#000000" stroke-linecap="round"></line><line opacity="1" x1="23.5" y1="20.5" x2="23.5" y2="23.5" stroke-width="0.6" stroke="#000000" stroke-linecap="round"></line><rect fill="#000000" x="2" y="20" width="3" height="3"></rect><rect fill="none" stroke-width="1" stroke="#000000" x="0.5" y="18.5" width="6" height="6"></rect><circle opacity="1" r="0.3" fill="#000000" cx="8.5" cy="21.5"></circle><line opacity="1" x1="12.5" y1="21.5" x2="12.5" y2="24.5" stroke-width="0.6" stroke="#000000" stroke-linecap="round"></line><line opacity="1" x1="18.5" y1="21.5" x2="19.5" y2="21.5" stroke-width="0.6" stroke="#000000" stroke-linecap="round"></line><line opacity="1" x1="21.5" y1="21.5" x2="21.5" y2="24.5" stroke-width="0.6" stroke="#000000" stroke-linecap="round"></line><line opacity="1" x1="11.5" y1="22.5" x2="11.5" y2="23.5" stroke-width="0.6" stroke="#000000" stroke-linecap="round"></line><circle opacity="1" r="0.3" fill="#000000" cx="17.5" cy="22.5"></circle><line opacity="1" x1="19.5" y1="22.5" x2="19.5" y2="23.5" stroke-width="0.6" stroke="#000000" stroke-linecap="round"></line><line opacity="1" x1="20.5" y1="22.5" x2="20.5" y2="24.5" stroke-width="0.6" stroke="#000000" stroke-linecap="round"></line><line opacity="1" x1="24.5" y1="22.5" x2="24.5" y2="24.5" stroke-width="0.6" stroke="#000000" stroke-linecap="round"></line><circle opacity="1" r="0.3" fill="#000000" cx="9.5" cy="23.5"></circle><circle opacity="1" r="0.3" fill="#000000" cx="13.5" cy="23.5"></circle><circle opacity="1" r="0.3" fill="#000000" cx="22.5" cy="23.5"></circle><circle opacity="1" r="0.3" fill="#000000" cx="8.5" cy="24.5"></circle></svg>